<mxfile host="app.diagrams.net" modified="2024-03-07T11:36:51.744Z" agent="Mozilla/5.0 (Windows NT 10.0; Win64; x64) AppleWebKit/537.36 (KHTML, like Gecko) Chrome/122.0.0.0 Safari/537.36" etag="eXhL1f6FBnLCB6JHVcv0" version="24.0.2" type="device">
  <diagram id="C5RBs43oDa-KdzZeNtuy" name="Page-1">
    <mxGraphModel dx="880" dy="434" grid="1" gridSize="10" guides="1" tooltips="1" connect="1" arrows="1" fold="1" page="1" pageScale="1" pageWidth="827" pageHeight="1169" math="0" shadow="0">
      <root>
        <mxCell id="WIyWlLk6GJQsqaUBKTNV-0" />
        <mxCell id="WIyWlLk6GJQsqaUBKTNV-1" parent="WIyWlLk6GJQsqaUBKTNV-0" />
        <mxCell id="bklwgOd4aa9scbPEdoBd-14" value="«interface»&lt;br&gt;&lt;span style=&quot;font-weight: 700;&quot;&gt;IAbstractFactory&lt;/span&gt;" style="html=1;whiteSpace=wrap;labelBackgroundColor=none;labelBorderColor=none;fillColor=#eeeeee;strokeColor=#36393d;" vertex="1" parent="WIyWlLk6GJQsqaUBKTNV-1">
          <mxGeometry x="170" y="90" width="170" height="50" as="geometry" />
        </mxCell>
        <mxCell id="bklwgOd4aa9scbPEdoBd-78" style="edgeStyle=orthogonalEdgeStyle;rounded=0;orthogonalLoop=1;jettySize=auto;html=1;entryX=0.5;entryY=1;entryDx=0;entryDy=0;" edge="1" parent="WIyWlLk6GJQsqaUBKTNV-1" source="bklwgOd4aa9scbPEdoBd-20" target="bklwgOd4aa9scbPEdoBd-14">
          <mxGeometry relative="1" as="geometry" />
        </mxCell>
        <mxCell id="bklwgOd4aa9scbPEdoBd-85" style="edgeStyle=orthogonalEdgeStyle;rounded=0;orthogonalLoop=1;jettySize=auto;html=1;" edge="1" parent="WIyWlLk6GJQsqaUBKTNV-1" source="bklwgOd4aa9scbPEdoBd-20" target="bklwgOd4aa9scbPEdoBd-34">
          <mxGeometry relative="1" as="geometry" />
        </mxCell>
        <mxCell id="bklwgOd4aa9scbPEdoBd-86" style="edgeStyle=orthogonalEdgeStyle;rounded=0;orthogonalLoop=1;jettySize=auto;html=1;" edge="1" parent="WIyWlLk6GJQsqaUBKTNV-1" source="bklwgOd4aa9scbPEdoBd-20" target="bklwgOd4aa9scbPEdoBd-47">
          <mxGeometry relative="1" as="geometry">
            <Array as="points">
              <mxPoint x="375" y="440" />
            </Array>
          </mxGeometry>
        </mxCell>
        <mxCell id="bklwgOd4aa9scbPEdoBd-87" style="edgeStyle=orthogonalEdgeStyle;rounded=0;orthogonalLoop=1;jettySize=auto;html=1;" edge="1" parent="WIyWlLk6GJQsqaUBKTNV-1" source="bklwgOd4aa9scbPEdoBd-20" target="bklwgOd4aa9scbPEdoBd-58">
          <mxGeometry relative="1" as="geometry">
            <Array as="points">
              <mxPoint x="375" y="569" />
            </Array>
          </mxGeometry>
        </mxCell>
        <mxCell id="bklwgOd4aa9scbPEdoBd-20" value="QixFabric" style="swimlane;fontStyle=1;align=center;verticalAlign=top;childLayout=stackLayout;horizontal=1;startSize=26;horizontalStack=0;resizeParent=1;resizeParentMax=0;resizeLast=0;collapsible=1;marginBottom=0;whiteSpace=wrap;html=1;labelBackgroundColor=none;labelBorderColor=none;fillColor=#eeeeee;strokeColor=#36393d;" vertex="1" parent="WIyWlLk6GJQsqaUBKTNV-1">
          <mxGeometry x="270" y="220" width="210" height="128" as="geometry" />
        </mxCell>
        <mxCell id="bklwgOd4aa9scbPEdoBd-21" value="+&amp;nbsp;criarTenisCorrida(): ITenisCorrida" style="text;align=left;verticalAlign=top;spacingLeft=4;spacingRight=4;overflow=hidden;rotatable=0;points=[[0,0.5],[1,0.5]];portConstraint=eastwest;whiteSpace=wrap;html=1;labelBackgroundColor=none;labelBorderColor=none;fillColor=#eeeeee;strokeColor=#36393d;" vertex="1" parent="bklwgOd4aa9scbPEdoBd-20">
          <mxGeometry y="26" width="210" height="34" as="geometry" />
        </mxCell>
        <mxCell id="bklwgOd4aa9scbPEdoBd-65" value="+ criarTenisSkate(): ITenisSkate" style="text;align=left;verticalAlign=top;spacingLeft=4;spacingRight=4;overflow=hidden;rotatable=0;points=[[0,0.5],[1,0.5]];portConstraint=eastwest;whiteSpace=wrap;html=1;labelBackgroundColor=none;labelBorderColor=none;fillColor=#eeeeee;strokeColor=#36393d;" vertex="1" parent="bklwgOd4aa9scbPEdoBd-20">
          <mxGeometry y="60" width="210" height="34" as="geometry" />
        </mxCell>
        <mxCell id="bklwgOd4aa9scbPEdoBd-67" value="+ criarNovoTenisSkate(): ITenisSkate" style="text;align=left;verticalAlign=top;spacingLeft=4;spacingRight=4;overflow=hidden;rotatable=0;points=[[0,0.5],[1,0.5]];portConstraint=eastwest;whiteSpace=wrap;html=1;labelBackgroundColor=none;labelBorderColor=none;fillColor=#eeeeee;strokeColor=#36393d;" vertex="1" parent="bklwgOd4aa9scbPEdoBd-20">
          <mxGeometry y="94" width="210" height="34" as="geometry" />
        </mxCell>
        <mxCell id="bklwgOd4aa9scbPEdoBd-24" value="«interface»&lt;br&gt;&lt;b&gt;ITenis&lt;/b&gt;" style="html=1;whiteSpace=wrap;labelBackgroundColor=none;labelBorderColor=none;fillColor=#eeeeee;strokeColor=#36393d;" vertex="1" parent="WIyWlLk6GJQsqaUBKTNV-1">
          <mxGeometry x="872" y="90" width="110" height="50" as="geometry" />
        </mxCell>
        <mxCell id="bklwgOd4aa9scbPEdoBd-31" style="edgeStyle=orthogonalEdgeStyle;rounded=0;orthogonalLoop=1;jettySize=auto;html=1;entryX=0.5;entryY=1;entryDx=0;entryDy=0;labelBackgroundColor=none;labelBorderColor=none;fillColor=#eeeeee;strokeColor=#36393d;" edge="1" parent="WIyWlLk6GJQsqaUBKTNV-1" source="bklwgOd4aa9scbPEdoBd-29" target="bklwgOd4aa9scbPEdoBd-24">
          <mxGeometry relative="1" as="geometry" />
        </mxCell>
        <mxCell id="bklwgOd4aa9scbPEdoBd-29" value="«interface»&lt;br&gt;&lt;b&gt;ITenisSkate&lt;/b&gt;" style="html=1;whiteSpace=wrap;labelBackgroundColor=none;labelBorderColor=none;fillColor=#eeeeee;strokeColor=#36393d;" vertex="1" parent="WIyWlLk6GJQsqaUBKTNV-1">
          <mxGeometry x="797" y="180" width="110" height="50" as="geometry" />
        </mxCell>
        <mxCell id="bklwgOd4aa9scbPEdoBd-32" style="edgeStyle=orthogonalEdgeStyle;rounded=0;orthogonalLoop=1;jettySize=auto;html=1;entryX=0.5;entryY=1;entryDx=0;entryDy=0;labelBackgroundColor=none;labelBorderColor=none;fillColor=#eeeeee;strokeColor=#36393d;" edge="1" parent="WIyWlLk6GJQsqaUBKTNV-1" source="bklwgOd4aa9scbPEdoBd-30" target="bklwgOd4aa9scbPEdoBd-24">
          <mxGeometry relative="1" as="geometry" />
        </mxCell>
        <mxCell id="bklwgOd4aa9scbPEdoBd-30" value="«interface»&lt;br&gt;&lt;b&gt;ITenisCorrida&lt;/b&gt;" style="html=1;whiteSpace=wrap;labelBackgroundColor=none;labelBorderColor=none;fillColor=#eeeeee;strokeColor=#36393d;" vertex="1" parent="WIyWlLk6GJQsqaUBKTNV-1">
          <mxGeometry x="947" y="180" width="110" height="50" as="geometry" />
        </mxCell>
        <mxCell id="bklwgOd4aa9scbPEdoBd-46" style="edgeStyle=orthogonalEdgeStyle;rounded=0;orthogonalLoop=1;jettySize=auto;html=1;labelBackgroundColor=none;labelBorderColor=none;fillColor=#eeeeee;strokeColor=#36393d;" edge="1" parent="WIyWlLk6GJQsqaUBKTNV-1" source="bklwgOd4aa9scbPEdoBd-33" target="bklwgOd4aa9scbPEdoBd-14">
          <mxGeometry relative="1" as="geometry">
            <Array as="points">
              <mxPoint x="255" y="70" />
            </Array>
          </mxGeometry>
        </mxCell>
        <mxCell id="bklwgOd4aa9scbPEdoBd-55" style="edgeStyle=orthogonalEdgeStyle;rounded=0;orthogonalLoop=1;jettySize=auto;html=1;labelBackgroundColor=none;labelBorderColor=none;fillColor=#eeeeee;strokeColor=#36393d;" edge="1" parent="WIyWlLk6GJQsqaUBKTNV-1" source="bklwgOd4aa9scbPEdoBd-33" target="bklwgOd4aa9scbPEdoBd-29">
          <mxGeometry relative="1" as="geometry" />
        </mxCell>
        <mxCell id="bklwgOd4aa9scbPEdoBd-56" style="edgeStyle=orthogonalEdgeStyle;rounded=0;orthogonalLoop=1;jettySize=auto;html=1;entryX=1;entryY=0.5;entryDx=0;entryDy=0;labelBackgroundColor=none;labelBorderColor=none;fillColor=#eeeeee;strokeColor=#36393d;" edge="1" parent="WIyWlLk6GJQsqaUBKTNV-1" source="bklwgOd4aa9scbPEdoBd-33" target="bklwgOd4aa9scbPEdoBd-30">
          <mxGeometry relative="1" as="geometry">
            <Array as="points">
              <mxPoint x="1077" y="60" />
              <mxPoint x="1077" y="205" />
            </Array>
          </mxGeometry>
        </mxCell>
        <mxCell id="bklwgOd4aa9scbPEdoBd-33" value="User&lt;div&gt;&lt;br&gt;&lt;/div&gt;" style="shape=umlActor;verticalLabelPosition=bottom;verticalAlign=top;html=1;labelBackgroundColor=none;labelBorderColor=none;fillColor=#eeeeee;strokeColor=#36393d;" vertex="1" parent="WIyWlLk6GJQsqaUBKTNV-1">
          <mxGeometry x="40" y="40" width="30" height="60" as="geometry" />
        </mxCell>
        <mxCell id="bklwgOd4aa9scbPEdoBd-41" style="edgeStyle=orthogonalEdgeStyle;rounded=0;orthogonalLoop=1;jettySize=auto;html=1;labelBackgroundColor=none;labelBorderColor=none;fillColor=#eeeeee;strokeColor=#36393d;" edge="1" parent="WIyWlLk6GJQsqaUBKTNV-1" source="bklwgOd4aa9scbPEdoBd-34" target="bklwgOd4aa9scbPEdoBd-29">
          <mxGeometry relative="1" as="geometry" />
        </mxCell>
        <mxCell id="bklwgOd4aa9scbPEdoBd-34" value="Bravada" style="swimlane;fontStyle=0;childLayout=stackLayout;horizontal=1;startSize=26;horizontalStack=0;resizeParent=1;resizeParentMax=0;resizeLast=0;collapsible=1;marginBottom=0;whiteSpace=wrap;html=1;labelBackgroundColor=none;labelBorderColor=none;fillColor=#eeeeee;strokeColor=#36393d;" vertex="1" parent="WIyWlLk6GJQsqaUBKTNV-1">
          <mxGeometry x="700" y="280" width="140" height="78" as="geometry" />
        </mxCell>
        <mxCell id="bklwgOd4aa9scbPEdoBd-35" value="+&amp;nbsp;exibirInfoProduto()" style="text;align=left;verticalAlign=top;spacingLeft=4;spacingRight=4;overflow=hidden;rotatable=0;points=[[0,0.5],[1,0.5]];portConstraint=eastwest;whiteSpace=wrap;html=1;labelBackgroundColor=none;labelBorderColor=none;fillColor=#eeeeee;strokeColor=#36393d;" vertex="1" parent="bklwgOd4aa9scbPEdoBd-34">
          <mxGeometry y="26" width="140" height="26" as="geometry" />
        </mxCell>
        <mxCell id="bklwgOd4aa9scbPEdoBd-36" value="+&amp;nbsp;exibirTiposDeShape()" style="text;align=left;verticalAlign=top;spacingLeft=4;spacingRight=4;overflow=hidden;rotatable=0;points=[[0,0.5],[1,0.5]];portConstraint=eastwest;whiteSpace=wrap;html=1;labelBackgroundColor=none;labelBorderColor=none;fillColor=#eeeeee;strokeColor=#36393d;" vertex="1" parent="bklwgOd4aa9scbPEdoBd-34">
          <mxGeometry y="52" width="140" height="26" as="geometry" />
        </mxCell>
        <mxCell id="bklwgOd4aa9scbPEdoBd-81" style="edgeStyle=orthogonalEdgeStyle;rounded=0;orthogonalLoop=1;jettySize=auto;html=1;" edge="1" parent="WIyWlLk6GJQsqaUBKTNV-1" source="bklwgOd4aa9scbPEdoBd-38" target="bklwgOd4aa9scbPEdoBd-30">
          <mxGeometry relative="1" as="geometry" />
        </mxCell>
        <mxCell id="bklwgOd4aa9scbPEdoBd-38" value="Supernova" style="swimlane;fontStyle=0;childLayout=stackLayout;horizontal=1;startSize=26;horizontalStack=0;resizeParent=1;resizeParentMax=0;resizeLast=0;collapsible=1;marginBottom=0;whiteSpace=wrap;html=1;labelBackgroundColor=none;rounded=0;labelBorderColor=none;fillColor=#eeeeee;strokeColor=#36393d;" vertex="1" parent="WIyWlLk6GJQsqaUBKTNV-1">
          <mxGeometry x="940" y="290" width="260" height="78" as="geometry" />
        </mxCell>
        <mxCell id="bklwgOd4aa9scbPEdoBd-39" value="+&amp;nbsp;exibirInfoProduto()" style="text;align=left;verticalAlign=top;spacingLeft=4;spacingRight=4;overflow=hidden;rotatable=0;points=[[0,0.5],[1,0.5]];portConstraint=eastwest;whiteSpace=wrap;html=1;labelBackgroundColor=none;labelBorderColor=none;fillColor=#eeeeee;strokeColor=#36393d;" vertex="1" parent="bklwgOd4aa9scbPEdoBd-38">
          <mxGeometry y="26" width="260" height="26" as="geometry" />
        </mxCell>
        <mxCell id="bklwgOd4aa9scbPEdoBd-40" value="+ calcularEstimativaDeDuracaoPorTerreno()" style="text;align=left;verticalAlign=top;spacingLeft=4;spacingRight=4;overflow=hidden;rotatable=0;points=[[0,0.5],[1,0.5]];portConstraint=eastwest;whiteSpace=wrap;html=1;labelBackgroundColor=none;labelBorderColor=none;fillColor=#eeeeee;strokeColor=#36393d;" vertex="1" parent="bklwgOd4aa9scbPEdoBd-38">
          <mxGeometry y="52" width="260" height="26" as="geometry" />
        </mxCell>
        <mxCell id="bklwgOd4aa9scbPEdoBd-79" style="edgeStyle=orthogonalEdgeStyle;rounded=0;orthogonalLoop=1;jettySize=auto;html=1;entryX=0.5;entryY=1;entryDx=0;entryDy=0;" edge="1" parent="WIyWlLk6GJQsqaUBKTNV-1" source="bklwgOd4aa9scbPEdoBd-47" target="bklwgOd4aa9scbPEdoBd-29">
          <mxGeometry relative="1" as="geometry">
            <Array as="points">
              <mxPoint x="770" y="380" />
              <mxPoint x="852" y="380" />
            </Array>
          </mxGeometry>
        </mxCell>
        <mxCell id="bklwgOd4aa9scbPEdoBd-47" value="QixAllanMesquita" style="swimlane;fontStyle=0;childLayout=stackLayout;horizontal=1;startSize=26;horizontalStack=0;resizeParent=1;resizeParentMax=0;resizeLast=0;collapsible=1;marginBottom=0;whiteSpace=wrap;html=1;labelBackgroundColor=none;labelBorderColor=none;fillColor=#eeeeee;strokeColor=#36393d;" vertex="1" parent="WIyWlLk6GJQsqaUBKTNV-1">
          <mxGeometry x="700" y="400" width="140" height="78" as="geometry" />
        </mxCell>
        <mxCell id="bklwgOd4aa9scbPEdoBd-48" value="+&amp;nbsp;exibirInfoProduto()" style="text;align=left;verticalAlign=top;spacingLeft=4;spacingRight=4;overflow=hidden;rotatable=0;points=[[0,0.5],[1,0.5]];portConstraint=eastwest;whiteSpace=wrap;html=1;labelBackgroundColor=none;labelBorderColor=none;fillColor=#eeeeee;strokeColor=#36393d;" vertex="1" parent="bklwgOd4aa9scbPEdoBd-47">
          <mxGeometry y="26" width="140" height="26" as="geometry" />
        </mxCell>
        <mxCell id="bklwgOd4aa9scbPEdoBd-49" value="+&amp;nbsp;exibirTiposDeShape()" style="text;align=left;verticalAlign=top;spacingLeft=4;spacingRight=4;overflow=hidden;rotatable=0;points=[[0,0.5],[1,0.5]];portConstraint=eastwest;whiteSpace=wrap;html=1;labelBackgroundColor=none;labelBorderColor=none;fillColor=#eeeeee;strokeColor=#36393d;" vertex="1" parent="bklwgOd4aa9scbPEdoBd-47">
          <mxGeometry y="52" width="140" height="26" as="geometry" />
        </mxCell>
        <mxCell id="bklwgOd4aa9scbPEdoBd-82" style="edgeStyle=orthogonalEdgeStyle;rounded=0;orthogonalLoop=1;jettySize=auto;html=1;entryX=0.5;entryY=1;entryDx=0;entryDy=0;" edge="1" parent="WIyWlLk6GJQsqaUBKTNV-1" source="bklwgOd4aa9scbPEdoBd-50" target="bklwgOd4aa9scbPEdoBd-30">
          <mxGeometry relative="1" as="geometry">
            <Array as="points">
              <mxPoint x="930" y="449" />
              <mxPoint x="930" y="260" />
              <mxPoint x="1002" y="260" />
            </Array>
          </mxGeometry>
        </mxCell>
        <mxCell id="bklwgOd4aa9scbPEdoBd-50" value="QixContent" style="swimlane;fontStyle=0;childLayout=stackLayout;horizontal=1;startSize=26;horizontalStack=0;resizeParent=1;resizeParentMax=0;resizeLast=0;collapsible=1;marginBottom=0;whiteSpace=wrap;html=1;labelBackgroundColor=none;labelBorderColor=none;fillColor=#eeeeee;strokeColor=#36393d;" vertex="1" parent="WIyWlLk6GJQsqaUBKTNV-1">
          <mxGeometry x="940" y="410" width="260" height="78" as="geometry" />
        </mxCell>
        <mxCell id="bklwgOd4aa9scbPEdoBd-51" value="+&amp;nbsp;exibirInfoProduto()" style="text;align=left;verticalAlign=top;spacingLeft=4;spacingRight=4;overflow=hidden;rotatable=0;points=[[0,0.5],[1,0.5]];portConstraint=eastwest;whiteSpace=wrap;html=1;labelBackgroundColor=none;labelBorderColor=none;fillColor=#eeeeee;strokeColor=#36393d;" vertex="1" parent="bklwgOd4aa9scbPEdoBd-50">
          <mxGeometry y="26" width="260" height="26" as="geometry" />
        </mxCell>
        <mxCell id="bklwgOd4aa9scbPEdoBd-52" value="+ calcularEstimativaDeDuracaoPorTerreno()" style="text;align=left;verticalAlign=top;spacingLeft=4;spacingRight=4;overflow=hidden;rotatable=0;points=[[0,0.5],[1,0.5]];portConstraint=eastwest;whiteSpace=wrap;html=1;labelBackgroundColor=none;labelBorderColor=none;fillColor=#eeeeee;strokeColor=#36393d;" vertex="1" parent="bklwgOd4aa9scbPEdoBd-50">
          <mxGeometry y="52" width="260" height="26" as="geometry" />
        </mxCell>
        <mxCell id="bklwgOd4aa9scbPEdoBd-80" style="edgeStyle=orthogonalEdgeStyle;rounded=0;orthogonalLoop=1;jettySize=auto;html=1;entryX=0.5;entryY=1;entryDx=0;entryDy=0;" edge="1" parent="WIyWlLk6GJQsqaUBKTNV-1" source="bklwgOd4aa9scbPEdoBd-58" target="bklwgOd4aa9scbPEdoBd-29">
          <mxGeometry relative="1" as="geometry">
            <Array as="points">
              <mxPoint x="852" y="569" />
            </Array>
          </mxGeometry>
        </mxCell>
        <mxCell id="bklwgOd4aa9scbPEdoBd-58" value="QixCombat" style="swimlane;fontStyle=0;childLayout=stackLayout;horizontal=1;startSize=26;horizontalStack=0;resizeParent=1;resizeParentMax=0;resizeLast=0;collapsible=1;marginBottom=0;whiteSpace=wrap;html=1;labelBackgroundColor=none;labelBorderColor=none;fillColor=#eeeeee;strokeColor=#36393d;" vertex="1" parent="WIyWlLk6GJQsqaUBKTNV-1">
          <mxGeometry x="700" y="530" width="140" height="78" as="geometry" />
        </mxCell>
        <mxCell id="bklwgOd4aa9scbPEdoBd-59" value="+&amp;nbsp;exibirInfoProduto()" style="text;align=left;verticalAlign=top;spacingLeft=4;spacingRight=4;overflow=hidden;rotatable=0;points=[[0,0.5],[1,0.5]];portConstraint=eastwest;whiteSpace=wrap;html=1;labelBackgroundColor=none;labelBorderColor=none;fillColor=#eeeeee;strokeColor=#36393d;" vertex="1" parent="bklwgOd4aa9scbPEdoBd-58">
          <mxGeometry y="26" width="140" height="26" as="geometry" />
        </mxCell>
        <mxCell id="bklwgOd4aa9scbPEdoBd-60" value="+&amp;nbsp;exibirTiposDeShape()" style="text;align=left;verticalAlign=top;spacingLeft=4;spacingRight=4;overflow=hidden;rotatable=0;points=[[0,0.5],[1,0.5]];portConstraint=eastwest;whiteSpace=wrap;html=1;labelBackgroundColor=none;labelBorderColor=none;fillColor=#eeeeee;strokeColor=#36393d;" vertex="1" parent="bklwgOd4aa9scbPEdoBd-58">
          <mxGeometry y="52" width="140" height="26" as="geometry" />
        </mxCell>
        <mxCell id="bklwgOd4aa9scbPEdoBd-84" style="edgeStyle=orthogonalEdgeStyle;rounded=0;orthogonalLoop=1;jettySize=auto;html=1;entryX=0.5;entryY=1;entryDx=0;entryDy=0;" edge="1" parent="WIyWlLk6GJQsqaUBKTNV-1" source="bklwgOd4aa9scbPEdoBd-61" target="bklwgOd4aa9scbPEdoBd-30">
          <mxGeometry relative="1" as="geometry">
            <Array as="points">
              <mxPoint x="920" y="569" />
              <mxPoint x="920" y="260" />
              <mxPoint x="1002" y="260" />
            </Array>
          </mxGeometry>
        </mxCell>
        <mxCell id="bklwgOd4aa9scbPEdoBd-61" value="UltraBoost" style="swimlane;fontStyle=0;childLayout=stackLayout;horizontal=1;startSize=26;horizontalStack=0;resizeParent=1;resizeParentMax=0;resizeLast=0;collapsible=1;marginBottom=0;whiteSpace=wrap;html=1;labelBackgroundColor=none;labelBorderColor=none;fillColor=#eeeeee;strokeColor=#36393d;" vertex="1" parent="WIyWlLk6GJQsqaUBKTNV-1">
          <mxGeometry x="940" y="530" width="260" height="78" as="geometry" />
        </mxCell>
        <mxCell id="bklwgOd4aa9scbPEdoBd-62" value="+&amp;nbsp;exibirInfoProduto()" style="text;align=left;verticalAlign=top;spacingLeft=4;spacingRight=4;overflow=hidden;rotatable=0;points=[[0,0.5],[1,0.5]];portConstraint=eastwest;whiteSpace=wrap;html=1;labelBackgroundColor=none;labelBorderColor=none;fillColor=#eeeeee;strokeColor=#36393d;" vertex="1" parent="bklwgOd4aa9scbPEdoBd-61">
          <mxGeometry y="26" width="260" height="26" as="geometry" />
        </mxCell>
        <mxCell id="bklwgOd4aa9scbPEdoBd-63" value="+ calcularEstimativaDeDuracaoPorTerreno()" style="text;align=left;verticalAlign=top;spacingLeft=4;spacingRight=4;overflow=hidden;rotatable=0;points=[[0,0.5],[1,0.5]];portConstraint=eastwest;whiteSpace=wrap;html=1;labelBackgroundColor=none;labelBorderColor=none;fillColor=#eeeeee;strokeColor=#36393d;" vertex="1" parent="bklwgOd4aa9scbPEdoBd-61">
          <mxGeometry y="52" width="260" height="26" as="geometry" />
        </mxCell>
        <mxCell id="bklwgOd4aa9scbPEdoBd-88" style="edgeStyle=orthogonalEdgeStyle;rounded=0;orthogonalLoop=1;jettySize=auto;html=1;" edge="1" parent="WIyWlLk6GJQsqaUBKTNV-1" source="bklwgOd4aa9scbPEdoBd-72" target="bklwgOd4aa9scbPEdoBd-38">
          <mxGeometry relative="1" as="geometry">
            <Array as="points">
              <mxPoint x="135" y="640" />
              <mxPoint x="1240" y="640" />
              <mxPoint x="1240" y="329" />
            </Array>
          </mxGeometry>
        </mxCell>
        <mxCell id="bklwgOd4aa9scbPEdoBd-89" style="edgeStyle=orthogonalEdgeStyle;rounded=0;orthogonalLoop=1;jettySize=auto;html=1;" edge="1" parent="WIyWlLk6GJQsqaUBKTNV-1" source="bklwgOd4aa9scbPEdoBd-72" target="bklwgOd4aa9scbPEdoBd-50">
          <mxGeometry relative="1" as="geometry">
            <Array as="points">
              <mxPoint x="135" y="640" />
              <mxPoint x="1230" y="640" />
              <mxPoint x="1230" y="449" />
            </Array>
          </mxGeometry>
        </mxCell>
        <mxCell id="bklwgOd4aa9scbPEdoBd-90" style="edgeStyle=orthogonalEdgeStyle;rounded=0;orthogonalLoop=1;jettySize=auto;html=1;" edge="1" parent="WIyWlLk6GJQsqaUBKTNV-1" source="bklwgOd4aa9scbPEdoBd-72" target="bklwgOd4aa9scbPEdoBd-61">
          <mxGeometry relative="1" as="geometry">
            <Array as="points">
              <mxPoint x="135" y="640" />
              <mxPoint x="1210" y="640" />
              <mxPoint x="1210" y="569" />
            </Array>
          </mxGeometry>
        </mxCell>
        <mxCell id="bklwgOd4aa9scbPEdoBd-72" value="AdidasFabric" style="swimlane;fontStyle=1;align=center;verticalAlign=top;childLayout=stackLayout;horizontal=1;startSize=26;horizontalStack=0;resizeParent=1;resizeParentMax=0;resizeLast=0;collapsible=1;marginBottom=0;whiteSpace=wrap;html=1;labelBackgroundColor=none;labelBorderColor=none;fillColor=#eeeeee;strokeColor=#36393d;" vertex="1" parent="WIyWlLk6GJQsqaUBKTNV-1">
          <mxGeometry x="20" y="220" width="230" height="128" as="geometry" />
        </mxCell>
        <mxCell id="bklwgOd4aa9scbPEdoBd-73" value="+&amp;nbsp;criarTenisCorrida(): ITenisCorrida" style="text;align=left;verticalAlign=top;spacingLeft=4;spacingRight=4;overflow=hidden;rotatable=0;points=[[0,0.5],[1,0.5]];portConstraint=eastwest;whiteSpace=wrap;html=1;labelBackgroundColor=none;labelBorderColor=none;fillColor=#eeeeee;strokeColor=#36393d;" vertex="1" parent="bklwgOd4aa9scbPEdoBd-72">
          <mxGeometry y="26" width="230" height="34" as="geometry" />
        </mxCell>
        <mxCell id="bklwgOd4aa9scbPEdoBd-74" value="+ criarTenisSkate(): ITenisSkate" style="text;align=left;verticalAlign=top;spacingLeft=4;spacingRight=4;overflow=hidden;rotatable=0;points=[[0,0.5],[1,0.5]];portConstraint=eastwest;whiteSpace=wrap;html=1;labelBackgroundColor=none;labelBorderColor=none;fillColor=#eeeeee;strokeColor=#36393d;" vertex="1" parent="bklwgOd4aa9scbPEdoBd-72">
          <mxGeometry y="60" width="230" height="34" as="geometry" />
        </mxCell>
        <mxCell id="bklwgOd4aa9scbPEdoBd-75" value="+&amp;nbsp;criarNovoTenisCorrida(): ITenisCorrida" style="text;align=left;verticalAlign=top;spacingLeft=4;spacingRight=4;overflow=hidden;rotatable=0;points=[[0,0.5],[1,0.5]];portConstraint=eastwest;whiteSpace=wrap;html=1;labelBackgroundColor=none;labelBorderColor=none;fillColor=#eeeeee;strokeColor=#36393d;" vertex="1" parent="bklwgOd4aa9scbPEdoBd-72">
          <mxGeometry y="94" width="230" height="34" as="geometry" />
        </mxCell>
        <mxCell id="bklwgOd4aa9scbPEdoBd-77" style="edgeStyle=orthogonalEdgeStyle;rounded=0;orthogonalLoop=1;jettySize=auto;html=1;entryX=0.412;entryY=1;entryDx=0;entryDy=0;entryPerimeter=0;" edge="1" parent="WIyWlLk6GJQsqaUBKTNV-1" source="bklwgOd4aa9scbPEdoBd-72" target="bklwgOd4aa9scbPEdoBd-14">
          <mxGeometry relative="1" as="geometry" />
        </mxCell>
      </root>
    </mxGraphModel>
  </diagram>
</mxfile>
